<svg width="28" height="28" viewBox="0 0 28 28" fill="none" xmlns="http://www.w3.org/2000/svg">
<path d="M19.8328 12.8333H10.9742L14.8258 8.99813C15.0455 8.77862 15.169 8.48091 15.169 8.17048C15.169 7.86005 15.0455 7.56233 14.8258 7.34282C14.606 7.12332 14.3079 7 13.9971 7C13.6863 7 13.3882 7.12332 13.1684 7.34282L7.33265 13.1714C7.2264 13.2822 7.1431 13.4129 7.08755 13.556C6.97082 13.8398 6.97082 14.1582 7.08755 14.442C7.1431 14.5851 7.2264 14.7158 7.33265 14.8267L13.1684 20.6552C13.2769 20.7644 13.406 20.8512 13.5482 20.9103C13.6905 20.9695 13.843 21 13.9971 21C14.1512 21 14.3037 20.9695 14.4459 20.9103C14.5882 20.8512 14.7173 20.7644 14.8258 20.6552C14.9352 20.5468 15.022 20.4179 15.0812 20.2758C15.1405 20.1338 15.171 19.9814 15.171 19.8275C15.171 19.6736 15.1405 19.5213 15.0812 19.3792C15.022 19.2372 14.9352 19.1083 14.8258 18.9999L10.9742 15.1647H19.8328C20.1424 15.1647 20.4393 15.0419 20.6582 14.8233C20.877 14.6047 21 14.3082 21 13.999C21 13.6898 20.877 13.3933 20.6582 13.1747C20.4393 12.9561 20.1424 12.8333 19.8328 12.8333Z" fill="white"/>
</svg>
