<svg width="28" height="28" viewBox="0 0 28 28" fill="none" xmlns="http://www.w3.org/2000/svg">
<path d="M8.16715 12.8333H17.0258L13.1742 8.99813C12.9545 8.77862 12.831 8.48091 12.831 8.17048C12.831 7.86005 12.9545 7.56233 13.1742 7.34282C13.394 7.12332 13.6921 7 14.0029 7C14.3137 7 14.6118 7.12332 14.8316 7.34282L20.6673 13.1714C20.7736 13.2822 20.8569 13.4129 20.9124 13.556C21.0292 13.8398 21.0292 14.1582 20.9124 14.442C20.8569 14.5851 20.7736 14.7158 20.6673 14.8267L14.8316 20.6552C14.7231 20.7644 14.594 20.8512 14.4518 20.9103C14.3095 20.9695 14.157 21 14.0029 21C13.8488 21 13.6963 20.9695 13.554 20.9103C13.4118 20.8512 13.2827 20.7644 13.1742 20.6552C13.0648 20.5468 12.978 20.4179 12.9188 20.2758C12.8595 20.1338 12.829 19.9814 12.829 19.8275C12.829 19.6736 12.8595 19.5213 12.9188 19.3792C12.978 19.2372 13.0648 19.1083 13.1742 18.9999L17.0258 15.1647H8.16715C7.8576 15.1647 7.56073 15.0419 7.34185 14.8233C7.12297 14.6047 7 14.3082 7 13.999C7 13.6898 7.12297 13.3933 7.34185 13.1747C7.56073 12.9561 7.8576 12.8333 8.16715 12.8333Z" fill="white"/>
</svg>
