<svg width="24" height="24" viewBox="0 0 24 24" fill="none" xmlns="http://www.w3.org/2000/svg">
<path d="M13.29 15.71C13.383 15.8037 13.4936 15.8781 13.6154 15.9289C13.7373 15.9797 13.868 16.0058 14 16.0058C14.132 16.0058 14.2627 15.9797 14.3846 15.9289C14.5064 15.8781 14.617 15.8037 14.71 15.71L17.71 12.71C17.8037 12.617 17.8781 12.5064 17.9289 12.3846C17.9797 12.2627 18.0058 12.132 18.0058 12C18.0058 11.868 17.9797 11.7373 17.9289 11.6154C17.8781 11.4936 17.8037 11.383 17.71 11.29L14.71 8.29C14.5217 8.1017 14.2663 7.99591 14 7.99591C13.7337 7.99591 13.4783 8.1017 13.29 8.29C13.1017 8.4783 12.9959 8.7337 12.9959 9C12.9959 9.2663 13.1017 9.5217 13.29 9.71L14.59 11L3 11C2.73478 11 2.48043 11.1054 2.29289 11.2929C2.10536 11.4804 2 11.7348 2 12C2 12.2652 2.10536 12.5196 2.29289 12.7071C2.48043 12.8946 2.73478 13 3 13L14.59 13L13.29 14.29C13.1963 14.383 13.1219 14.4936 13.0711 14.6154C13.0203 14.7373 12.9942 14.868 12.9942 15C12.9942 15.132 13.0203 15.2627 13.0711 15.3846C13.1219 15.5064 13.1963 15.617 13.29 15.71ZM9 6L9 8C9 8.26522 9.10536 8.51957 9.29289 8.70711C9.48043 8.89464 9.73478 9 10 9C10.2652 9 10.5196 8.89464 10.7071 8.70711C10.8946 8.51957 11 8.26522 11 8L11 6C11 5.73478 11.1054 5.48043 11.2929 5.29289C11.4804 5.10536 11.7348 5 12 5L19 5C19.2652 5 19.5196 5.10536 19.7071 5.29289C19.8946 5.48043 20 5.73478 20 6L20 18C20 18.2652 19.8946 18.5196 19.7071 18.7071C19.5196 18.8946 19.2652 19 19 19L12 19C11.7348 19 11.4804 18.8946 11.2929 18.7071C11.1054 18.5196 11 18.2652 11 18L11 16C11 15.7348 10.8946 15.4804 10.7071 15.2929C10.5196 15.1054 10.2652 15 10 15C9.73478 15 9.48043 15.1054 9.29289 15.2929C9.10536 15.4804 9 15.7348 9 16L9 18C9 18.7956 9.31607 19.5587 9.87868 20.1213C10.4413 20.6839 11.2044 21 12 21L19 21C19.7956 21 20.5587 20.6839 21.1213 20.1213C21.6839 19.5587 22 18.7956 22 18L22 6C22 5.20435 21.6839 4.44129 21.1213 3.87868C20.5587 3.31607 19.7956 3 19 3L12 3C11.2043 3 10.4413 3.31607 9.87868 3.87868C9.31607 4.44129 9 5.20435 9 6Z" fill="#79C1A1"/>
</svg>
