<svg width="36" height="60" viewBox="0 0 36 60" fill="none" xmlns="http://www.w3.org/2000/svg">
<path fill-rule="evenodd" clip-rule="evenodd" d="M23.8872 1.21792C24.2521 2.1656 23.7027 3.20274 22.6602 3.53443L2.66112 9.89744C1.61862 10.2291 0.477701 9.72976 0.112823 8.78208C-0.252055 7.83439 0.297273 6.79726 1.33978 6.46557L21.3389 0.102561C22.3814 -0.229129 23.5223 0.270234 23.8872 1.21792Z" fill="#FFCCB8"/>
<path fill-rule="evenodd" clip-rule="evenodd" d="M34.9574 12.2446C35.927 12.7735 36.2843 13.9884 35.7554 14.958L11.7561 58.9573C11.2272 59.927 10.0123 60.2843 9.04265 59.7554C8.07298 59.2265 7.71567 58.0116 8.24458 57.042L32.2439 13.0427C32.7728 12.073 33.9877 11.7157 34.9574 12.2446Z" fill="#FFCCB8"/>
</svg>
