<?xml version="1.0" encoding="utf-8"?><svg viewBox="0 0 502.66 502.66" xmlns="http://www.w3.org/2000/svg" xmlns:xlink="http://www.w3.org/1999/xlink"><style>:root>svg{display:none}:root>svg:target{display:block}</style><svg viewBox="0 0 20 20" id="arrow-down" xmlns="http://www.w3.org/2000/svg"><path d="M14.083 7.667a.806.806 0 00-1.166 0L10 10.583 7.083 7.667a.806.806 0 00-1.166 0 .806.806 0 000 1.166l3.5 3.5c.166.167.333.25.583.25.25 0 .417-.083.583-.25l3.5-3.5a.806.806 0 000-1.166z"/></svg><svg viewBox="0 0 28 28" id="arrow-next" xmlns="http://www.w3.org/2000/svg"><path d="M8.167 12.833h8.859l-3.852-3.835a1.17 1.17 0 111.658-1.655l5.835 5.828c.107.111.19.242.245.385.117.284.117.602 0 .886a1.164 1.164 0 01-.245.385l-5.835 5.828a1.167 1.167 0 01-1.658 0 1.165 1.165 0 010-1.655l3.852-3.835H8.167A1.168 1.168 0 017 13.999a1.165 1.165 0 011.167-1.166z"/></svg><svg viewBox="0 0 28 28" id="arrow-prev" xmlns="http://www.w3.org/2000/svg"><path d="M19.833 12.833h-8.859l3.852-3.835a1.17 1.17 0 10-1.658-1.655L7.333 13.17c-.107.111-.19.242-.245.385a1.165 1.165 0 000 .886c.055.143.138.274.245.385l5.835 5.828a1.167 1.167 0 001.658 0 1.165 1.165 0 000-1.655l-3.852-3.835h8.859A1.168 1.168 0 0021 13.999a1.165 1.165 0 00-1.167-1.166z"/></svg><svg viewBox="0 0 502.664 502.664" id="icon" xmlns="http://www.w3.org/2000/svg"><path d="M153.821 358.226L0 274.337v-46.463l153.821-83.414v54.574L46.636 250.523l107.185 53.431v54.272zm26.273 29.358L282.103 115.08h32.227L212.084 387.584h-31.99zm168.749-29.358v-54.272l107.164-52.999-107.164-52.59v-53.927l153.821 83.522v46.183l-153.821 84.083z"/></svg><svg viewBox="0 0 24 24" id="icon-lk" xmlns="http://www.w3.org/2000/svg"><path d="M13.29 15.71a1.002 1.002 0 001.42 0l3-3a1.002 1.002 0 000-1.42l-3-3a1.004 1.004 0 00-1.42 1.42l1.3 1.29H3a1 1 0 000 2h11.59l-1.3 1.29a1.002 1.002 0 000 1.42zM9 6v2a1 1 0 002 0V6a1 1 0 011-1h7a1 1 0 011 1v12a1 1 0 01-1 1h-7a1 1 0 01-1-1v-2a1 1 0 00-2 0v2a3 3 0 003 3h7a3 3 0 003-3V6a3 3 0 00-3-3h-7a3 3 0 00-3 3z"/></svg><svg viewBox="0 0 36 60" id="line" xmlns="http://www.w3.org/2000/svg"><path fill-rule="evenodd" clip-rule="evenodd" d="M23.887 1.218c.365.948-.184 1.985-1.227 2.316L2.661 9.897C1.62 10.23.478 9.73.113 8.782c-.365-.948.184-1.985 1.227-2.316L21.339.103c1.042-.332 2.183.167 2.548 1.115zm11.07 11.027a2 2 0 01.798 2.713l-23.999 44a2 2 0 01-3.511-1.916l23.999-44a2 2 0 012.713-.797z"/></svg><svg viewBox="0 0 20 20" id="open-icon" xmlns="http://www.w3.org/2000/svg"><path d="M15 9.017a.833.833 0 00-.833.833v5.983a.833.833 0 01-.834.833H4.167a.833.833 0 01-.834-.833V6.667a.833.833 0 01.834-.834h5.983a.833.833 0 000-1.667H4.167a2.5 2.5 0 00-2.5 2.5v9.167a2.5 2.5 0 002.5 2.5h9.166a2.5 2.5 0 002.5-2.5V9.85A.834.834 0 0015 9.017zm3.267-6.834a.834.834 0 00-.45-.45.834.834 0 00-.317-.067h-5a.833.833 0 100 1.667h2.992l-8.584 8.575a.832.832 0 000 1.184.833.833 0 001.184 0l8.575-8.584V7.5a.834.834 0 001.666 0v-5a.833.833 0 00-.066-.317z"/></svg><svg viewBox="0 0 32 32" id="star" xmlns="http://www.w3.org/2000/svg"><path d="M16 0l1.657 4.202a18 18 0 0010.141 10.14L32 16l-4.202 1.657a18 18 0 00-10.14 10.141L16 32l-1.657-4.202a18 18 0 00-10.141-10.14L0 16l4.202-1.657a18 18 0 0010.14-10.141L16 0z"/></svg></svg>